{"title":"Tears of the Sun - L ultima alba (2003) Extend version.DVDrip.Xv","uid":11952660,"size":1896372158,"categoryP":"video","categoryS":"movies","magnet":"?xt=urn:btih:b694ca0abbccc5eef388238c4d530d487a22723d&amp;dn=Tears+of+the+Sun+-+L+ultima+alba+%282003%29+Extend+version.DVDrip.Xv&amp;tr=udp%3A%2F%2Ftracker.openbittorrent.com%3A80&amp;tr=udp%3A%2F%2Fopen.demonii.com%3A1337&amp;tr=udp%3A%2F%2Ftracker.coppersurfer.tk%3A6969&amp;tr=udp%3A%2F%2Fexodus.desync.com%3A6969","seeders":1,"leechers":2,"uploader":"robbyrs4","files":3,"time":1432229617,"description":"Tears of the Sun - L ultima alba (2003) Extend version.DVDrip.XviD - Italian English.Ac3.5.1.Sub.ita.eng.MIRCrew\n\n[center]\n\n[color=red][b][img]http://s19.postimg.org/9qdjr7p77/Original_release_2.png[/img]\n\n[u]NO FOUND ONLY ORIGINAL RELEASE[/u]\n\nL'ultima alba - Tears of the Sun (2003)\n\n[img]http://i.imgur.com/6vCNYUa.png[/img]\n\n\n[URL=http://www.imdb.com/title/tt0314353/][IMG]http://www.userlogos.org/files/logos/Sucka/imdb_new.png[/IMG][/URL]  \n\n[img]http://s19.postimg.org/vz5tzn42b/1_scheda.png[/img]\n\n\nTitolo originale \tTears of the Sun\nPaese di produzione \tUSA\nAnno \t2003\nDurata \t121 min\n142 min (versione estesa)\nGenere \tguerra, drammatico\nRegia \tAntoine Fuqua\nSoggetto \tAlex Lasker, Patrick Cirillo\nSceneggiatura \tAlex Lasker, Patrick Cirillo\nFotografia \tMauro Fiore\nMontaggio \tConrad Buff IV (versione cin.), Christopher Holmes (versione estesa)\nMusiche \tLisa Gerrard, Hans Zimmer\nScenografia \tDavid Lazan\n\n\n[img]http://s19.postimg.org/q8fnlww2b/1_cast.png[/img]\n\n\n\n    Bruce Willis: Tenente A.K. Waters\n    Monica Bellucci: Dr. Lena Fiore Kendricks\n    Cole Hauser: James 'Red' Atkins\n    Eamonn Walker: Ellis 'Zee' Pettigrew\n    Johnny Messner: Kelly Lake\n    Tom Skerritt: Capitano Bill Rhodes\n    Peter Mensah: Terwase\n\n   \n[img]http://s19.postimg.org/okgi79i6r/1_trama.png[/img]. \n\nQuando un colpo di Stato militare rovescia il regime democratico in Nigeria, una squadra di 7 assaltatori di Navy SEALs, sotto il comando del tenente A.K. Waters (Bruce Willis), viene trasferita sulla portaerei USS Harry S. Truman e affidati ad una operazione rischiosa: hanno infatti il compito di soccorrere la dottoressa Lena Kendricks (Monica Bellucci), una cittadina americana alla guida di un ospedale presso una missione cristiana e altri tre occidentali. .......\n\n[img]http://s19.postimg.org/fzn6g380j/1_story.png[/img]\n\nA Special-Ops commander leads his team into the Nigerian jungle in order to rescue a doctor who will only join them if they agree to save 70 refugees too.................\n &lt;a href=&quot;\nhttp://extraimago.com/images/2015/05/21/vlcsnap-2015-05-21-17h13m26s156.png[/img]&quot; rel=&quot;nofollow&quot; target=&quot;_NEW&quot;&gt;\nhttp://extraimago.com/images/2015/05/21/vlcsnap-2015-05-21-17h13m26s156.png[/img]&lt;/a&gt; &lt;a href=&quot;\nhttp://extraimago.com/images/2015/05/21/vlcsnap-2015-05-21-17h13m44s85.png[/img]&quot; rel=&quot;nofollow&quot; target=&quot;_NEW&quot;&gt;\nhttp://extraimago.com/images/2015/05/21/vlcsnap-2015-05-21-17h13m44s85.png[/img]&lt;/a&gt; &lt;a href=&quot;\nhttp://extraimago.com/images/2015/05/21/vlcsnap-2015-05-21-17h13m50s127.png[/img]&quot; rel=&quot;nofollow&quot; target=&quot;_NEW&quot;&gt;\nhttp://extraimago.com/images/2015/05/21/vlcsnap-2015-05-21-17h13m50s127.png[/img]&lt;/a&gt;\n\n\n[IMG]http://img153.imageshack.us/img153/3158/restateinseedblood.gif[/img]\n\n\n[img]http://imgur.com/lvhU6.gif[/img]\n\n\n[img]http://s19.postimg.org/a2jaz9qvn/1_dati.png[/img]\n\n\n[spoiler]\nGeneral\nComplete name                            : L'ultima alba - Tears of the Sun (2003).Ita.Eng.Sub.ita.eng.MIRCrewL'ultima alba - Tears of the Sun (2003).Ita.Eng.Sub.ita.eng.MIRCrew.avi\nFormat                                   : AVI\nFormat/Info                              : Audio Video Interleave\nFile size                                : 1.76 GiB\nDuration                                 : 2h 1mn\nOverall bit rate                         : 2 081 Kbps\nWriting application                      : VirtualDubMod 1.5.10.2 (build 2540/release)\nWriting library                          : VirtualDubMod build 2540/release\n\nVideo\nID                                       : 0\nFormat                                   : MPEG-4 Visual\nFormat profile                           : Advanced Simple@L5\nFormat settings, BVOP                    : 2\nFormat settings, QPel                    : No\nFormat settings, GMC                     : No warppoints\nFormat settings, Matrix                  : Default (H.263)\nCodec ID                                 : XVID\nCodec ID/Hint                            : XviD\nDuration                                 : 2h 1mn\nBit rate                                 : 1 171 Kbps\nWidth                                    : 700 pixels\nHeight                                   : 304 pixels\nDisplay aspect ratio                     : 2.40:1\nOriginal display aspect ratio            : 2.35:1\nFrame rate                               : 23.976 fps\nColor space                              : YUV\nChroma subsampling                       : 4:2:0\nBit depth                                : 8 bits\nScan type                                : Progressive\nCompression mode                         : Lossy\nBits/(Pixel*Frame)                       : 0.230\nStream size                              : 1 015 MiB (56%)\nWriting library                          : XviD 1.1.2 (UTC 2006-11-01)\n\nAudio #1\nID                                       : 1\nFormat                                   : AC-3\nFormat/Info                              : Audio Coding 3\nMode extension                           : CM (complete main)\nCodec ID                                 : 2000\nDuration                                 : 2h 1mn\nBit rate mode                            : Constant\nBit rate                                 : 448 Kbps\nChannel(s)                               : 6 channels\nChannel positions                        : Front: L C R, Side: L R, LFE\nSampling rate                            : 48.0 KHz\nBit depth                                : 16 bits\nCompression mode                         : Lossy\nStream size                              : 388 MiB (22%)\nAlignment                                : Split accross interleaves\nInterleave, duration                     : 42 ms (1.00 video frame)\nInterleave, preload duration             : 500 ms\n\nAudio #2\nID                                       : 2\nFormat                                   : AC-3\nFormat/Info                              : Audio Coding 3\nMode extension                           : CM (complete main)\nCodec ID                                 : 2000\nDuration                                 : 2h 1mn\nBit rate mode                            : Constant\nBit rate                                 : 448 Kbps\nChannel(s)                               : 6 channels\nChannel positions                        : Front: L C R, Side: L R, LFE\nSampling rate                            : 48.0 KHz\nBit depth                                : 16 bits\nCompression mode                         : Lossy\nStream size                              : 388 MiB (22%)\nAlignment                                : Split accross interleaves\nInterleave, duration                     : 42 ms (1.00 video frame)\nInterleave, preload duration             : 500 ms\n\n\n\n[/spoiler]\n\n[/color][/b][/center]","torrent":{"xt":"urn:btih:b694ca0abbccc5eef388238c4d530d487a22723d","amp;dn":"Tears+of+the+Sun+-+L+ultima+alba+%282003%29+Extend+version.DVDrip.Xv","amp;tr":["udp%3A%2F%2Ftracker.openbittorrent.com%3A80","udp%3A%2F%2Fopen.demonii.com%3A1337","udp%3A%2F%2Ftracker.coppersurfer.tk%3A6969","udp%3A%2F%2Fexodus.desync.com%3A6969"],"infoHash":"b694ca0abbccc5eef388238c4d530d487a22723d","infoHashBuffer":{"type":"Buffer","data":[182,148,202,10,187,204,197,238,243,136,35,140,77,83,13,72,122,34,114,61]},"announce":[],"urlList":[]}}